<svg id="share" xmlns="http://www.w3.org/2000/svg" width="16.03" height="16.031" viewBox="0 0 16.03 16.031">
  <defs>
    <style>
      .cls-1 {
        fill: #fff;
        fill-rule: evenodd;
      }
    </style>
  </defs>
  <path id="insta" class="cls-1" d="M1068.19,219.954l12,0.032a2,2,0,0,1,2,2.006l-0.03,12a2,2,0,0,1-2.01,1.994l-12-.032a1.994,1.994,0,0,1-1.99-2l0.03-12A2,2,0,0,1,1068.19,219.954Zm5.99,5.016a3,3,0,1,1-3.01,2.992A2.994,2.994,0,0,1,1074.18,224.97Zm0-1a4,4,0,1,1-4.01,3.99A4,4,0,0,1,1074.18,223.97Zm-8,.979,5,0.013v1l-5-.013v-1Zm11,0.029,5,0.014v1l-5-.014v-1Zm2.01-2.994a1,1,0,1,1-.01,2A1,1,0,0,1,1079.19,221.984Z" transform="translate(-1066.16 -219.969)"/>
</svg>
