<svg id="FORM" xmlns="http://www.w3.org/2000/svg" width="18" height="13" viewBox="0 0 18 13">
  <defs>
    <style>
      .cls-1 {
        fill: #fff;
        fill-rule: evenodd;
      }
    </style>
  </defs>
  <path id="mail" class="cls-1" d="M1007.44,284.05l-14.845-.038a1.409,1.409,0,0,0-1.568,1.519l-0.027,9.9a1.41,1.41,0,0,0,1.559,1.528L1007.41,297a1.415,1.415,0,0,0,1.57-1.52l0.02-9.905A1.407,1.407,0,0,0,1007.44,284.05Zm0,3.048s-5.39,2.835-7.05,3.791a1.074,1.074,0,0,1-.78,0l-7.024-3.828,0-1.523,7.024,3.827a1.1,1.1,0,0,0,.786,0c1.68-.917,7.04-3.791,7.04-3.791V287.1Z" transform="translate(-991 -284)"/>
</svg>
