<svg xmlns="http://www.w3.org/2000/svg" width="14" height="16" viewBox="0 0 14 16">
  <defs>
    <style>
      .cls-1 {
        fill: #fff;
        fill-rule: evenodd;
      }
    </style>
  </defs>
  <path id="pinterest" class="cls-1" d="M1252.03,231.65a3.018,3.018,0,0,0,2.53,1.239c3.34,0.009,5.61-2.882,5.62-6.765,0.01-2.932-2.59-5.671-6.56-5.682-4.93-.013-7.43,3.349-7.43,6.159a3.76,3.76,0,0,0,2.11,3.784,0.36,0.36,0,0,0,.52-0.246c0.05-.174.16-0.611,0.21-0.793a0.452,0.452,0,0,0-.14-0.553,2.763,2.763,0,0,1-.68-1.941,4.8,4.8,0,0,1,5.12-4.724c2.79,0.008,4.32,1.635,4.31,3.8-0.01,2.854-1.34,5.257-3.3,5.251a1.558,1.558,0,0,1-1.64-1.91,19.812,19.812,0,0,0,.93-3.505,1.353,1.353,0,0,0-1.4-1.491c-1.11,0-2,1.091-2.01,2.555a3.687,3.687,0,0,0,.33,1.568s-1.15,4.584-1.35,5.385a8.713,8.713,0,0,0-.19,2.244,10.805,10.805,0,0,0,1.25.423,8.114,8.114,0,0,0,1.03-2.083C1251.42,233.925,1252.03,231.65,1252.03,231.65Z" transform="translate(-1246.19 -220.438)"/>
</svg>
