<?xml version="1.0" encoding="utf-8"?>
<!-- Generator: Adobe Illustrator 20.0.0, SVG Export Plug-In . SVG Version: 6.00 Build 0)  -->
<svg version="1.1" id="Capa_1" xmlns="http://www.w3.org/2000/svg" xmlns:xlink="http://www.w3.org/1999/xlink" x="0px" y="0px"
	 viewBox="0 0 450 450" style="enable-background:new 0 0 450 450;" xml:space="preserve">
<style type="text/css">
	.st0{fill:#555656;}
</style>
<g>
	<path class="st0" d="M337.5,155.4c-8.9,3.8-17.7,6.2-26.6,7.1c10-6,16.8-14.4,20.2-25.4c-9.1,5.4-18.9,9.1-29.2,11.1
		c-9.1-9.7-20.4-14.6-33.7-14.6c-12.8,0-23.6,4.5-32.6,13.5s-13.5,19.9-13.5,32.6c0,3.4,0.4,6.9,1.2,10.6
		c-18.9-0.9-36.5-5.7-53.1-14.2c-16.5-8.5-30.6-19.9-42.1-34.1c-4.2,7.1-6.3,14.8-6.3,23.2c0,7.9,1.8,15.2,5.6,22
		c3.7,6.8,8.7,12.2,15,16.4c-7.4-0.3-14.4-2.2-20.9-5.9v0.6c0,11.2,3.5,20.9,10.5,29.4c7,8.4,15.8,13.7,26.5,15.9
		c-4,1.1-8.1,1.6-12.1,1.6c-2.7,0-5.6-0.2-8.7-0.7c3,9.2,8.4,16.8,16.2,22.8c7.9,5.9,16.9,9,26.9,9.2
		c-16.8,13.1-35.8,19.7-57.2,19.7c-4.1,0-7.8-0.2-11.2-0.6c21.4,13.8,45,20.7,70.8,20.7c16.3,0,31.8-2.6,46.1-7.8
		c14.4-5.2,26.7-12.1,36.8-20.9c10.2-8.7,19-18.7,26.4-30c7.4-11.4,12.9-23.2,16.5-35.5s5.4-24.6,5.4-37.1c0-2.6,0-4.6-0.1-6
		C323.4,172.6,331.1,164.7,337.5,155.4z"/>
</g>
</svg>
