<?xml version="1.0" encoding="utf-8"?>
<!-- Generator: Adobe Illustrator 20.0.0, SVG Export Plug-In . SVG Version: 6.00 Build 0)  -->
<svg version="1.1" id="Capa_1" xmlns="http://www.w3.org/2000/svg" xmlns:xlink="http://www.w3.org/1999/xlink" x="0px" y="0px"
	 viewBox="0 0 511.6 511.6" style="enable-background:new 0 0 511.6 511.6;" xml:space="preserve">
<style type="text/css">
	.st0{fill:#555656;}
</style>
<g>
	<g>
		<path class="st0" d="M357.9,260.1c-1.2-5.6-4-10.3-8.2-14.1s-9.1-6-14.6-6.7c-17.5-1.9-43.9-2.9-79.2-2.9s-61.6,0.9-79.1,2.9
			c-5.6,0.6-10.5,2.9-14.7,6.7s-6.9,8.5-8.3,14.1c-2.5,11.1-3.7,27.7-3.7,50c0,22.6,1.2,39.3,3.7,50c1.2,5.6,4,10.3,8.2,14.1
			c4.2,3.8,9.1,6,14.6,6.6c17.5,2,43.9,3,79.2,3s61.7-1,79.2-3c5.5-0.6,10.4-2.8,14.6-6.6c4.2-3.8,6.9-8.5,8.3-14.1
			c2.5-11.1,3.7-27.7,3.7-50C361.6,287.4,360.4,270.8,357.9,260.1z M210.4,274.5h-15.2v81.2H181v-81.2h-15v-13.4h44.5v13.4H210.4z
			 M249,355.8h-12.7V348c-5.1,5.8-10,8.7-14.6,8.7c-4.4,0-7.1-1.8-8.3-5.3c-0.8-2.3-1.1-5.8-1.1-10.4v-55.8H225v51.9
			c0,3.1,0.1,4.7,0.1,5c0.3,2,1.3,3,3,3c2.6,0,5.3-2,8.2-6v-53.9H249V355.8L249,355.8z M297.5,334.6c0,7-0.5,11.7-1.3,14.3
			c-1.6,5.2-5,7.9-10.1,7.9c-4.5,0-9-2.6-13.3-7.9v6.9h-12.7v-94.7h12.7v31c4.1-5.1,8.5-7.7,13.3-7.7c5.1,0,8.5,2.6,10.1,8
			c0.9,2.4,1.3,7.2,1.3,14.1V334.6z M345.8,322.9h-25.6v12.4c0,6.5,2.2,9.9,6.6,9.9c3.1,0,5-1.7,5.7-5.1c0.2-1,0.3-3.9,0.3-8.7h13
			v1.9c0,4.6-0.1,7.4-0.3,8.3c-0.3,2.5-1.3,5.1-3,7.7c-3.4,5-8.5,7.5-15.4,7.5c-6.5,0-11.7-2.5-15.4-7.3c-2.8-3.5-4.1-9.1-4.1-16.6
			v-24.7c0-7.5,1.4-13.1,4-16.6c3.7-4.9,8.8-7.3,15.3-7.3c6.4,0,11.4,2.5,15.1,7.3c2.5,3.5,3.9,9.1,3.9,16.6L345.8,322.9
			L345.8,322.9z"/>
		<path class="st0" d="M279.2,295.9c-2.2,0-4.4,1.1-6.4,3.1v43c2.1,2.1,4.2,3.1,6.4,3.1c3.7,0,5.6-3.2,5.6-9.5v-30.1
			C284.8,299.1,283,295.9,279.2,295.9z"/>
		<path class="st0" d="M326.6,295.9c-4.3,0-6.4,3.2-6.4,9.7v6.6h12.9v-6.6C333.1,299.1,330.9,295.9,326.6,295.9z"/>
		<path class="st0" d="M202.2,184.8v38.7h14.2v-38.7l17.3-56.9h-14.6l-9.8,37.6l-10.1-37.6H184c2.7,8,5.8,16.9,9.3,26.7
			C197.9,167.8,200.8,177.8,202.2,184.8z"/>
		<path class="st0" d="M252.8,224.5c6.5,0,11.6-2.4,15.1-7.3c2.6-3.5,4-9.2,4-16.9v-25c0-7.6-1.4-13.2-4-16.7
			c-3.5-4.9-8.5-7.3-15.1-7.3c-6.4,0-11.4,2.4-15,7.3c-2.7,3.5-4,9.1-4,16.7v25c0,7.6,1.3,13.2,4,16.9
			C241.5,222.1,246.5,224.5,252.8,224.5z M246.7,172.8c0-6.6,2.1-9.8,6.2-9.8c4.1,0,6.1,3.3,6.1,9.8v30c0,6.7-2,10-6.1,10
			s-6.2-3.3-6.2-10V172.8z"/>
		<path class="st0" d="M292.1,224.5c4.8,0,9.6-2.9,14.7-8.8v7.8h13v-71.2h-13v54.4c-2.9,4.1-5.5,6.2-8.1,6.2c-1.7,0-2.7-1.1-3-3.2
			c-0.1-0.2-0.1-1.8-0.1-5v-52.4h-13v56.2c0,4.9,0.4,8.4,1.1,10.7C284.9,222.8,287.7,224.5,292.1,224.5z"/>
	</g>
</g>
</svg>
